<?xml version="1.0" encoding="UTF-8" standalone="no"?>
<!-- Created with Inkscape (http://www.inkscape.org/) -->

<svg
   width="251.5"
   height="268"
   viewBox="0 0 50.3 53.6"
   version="1.1"
   id="svg5"
   xml:space="preserve"
   xmlns="http://www.w3.org/2000/svg"
   xmlns:svg="http://www.w3.org/2000/svg"
   xmlns:rdf="http://www.w3.org/1999/02/22-rdf-syntax-ns#"
   xmlns:cc="http://creativecommons.org/ns#"
   xmlns:dc="http://purl.org/dc/elements/1.1/"><title
     id="title3514">Bangladesh University of Professionals (BUP) - বাংলাদেশ ইউনিভার্সিটি অব প্রফেশনালস্ (বিইউপি)</title><defs
     id="defs2" /><g
     id="layer1"
     transform="translate(-23.951586,-12.441406)"><g
       id="g3512"><g
         id="g2570"
         style="stroke-width:0.999764;stroke-dasharray:none"
         transform="matrix(0.28086626,0,0,0.28086626,17.374397,9.1031396)"><path
           style="color:#000000;fill:#007f3d;stroke-width:0.999764;stroke-dasharray:none"
           d="M 61.835156,12.991406 42.794531,33.191797 c 5.692745,6.791013 7.972402,15.833774 8.540235,25.300391 1.274545,21.248614 -4.535155,36.913077 -5.43125,45.401172 -1.534198,14.53239 4.849468,29.83036 17.55625,37.71875 8.384908,5.20536 16.659722,8.15732 25.320312,11.85937 7.689816,3.28709 14.773852,6.47655 24.182032,14.38204 9.40818,-7.90549 16.49261,-11.09495 24.18242,-14.38204 8.66059,-3.70205 16.93501,-6.65401 25.31992,-11.85937 12.70678,-7.88839 19.09045,-23.18636 17.55625,-37.71875 -0.8961,-8.488095 -6.7058,-24.152558 -5.43125,-45.401172 0.56783,-9.466617 2.84749,-18.509378 8.54024,-25.300391 L 164.08945,12.991406 c -34.08476,0 -68.169529,0 -102.254294,0 z"
           id="path2562" /><path
           style="color:#000000;fill:#d9aa16;stroke-width:0.999764;stroke-dasharray:none"
           d="m 61.597656,12.441406 -0.162109,0.171875 -19.376953,20.556641 0.314453,0.375 c 5.584759,6.662194 7.848291,15.580788 8.412109,24.980469 1.267596,21.132752 -4.512999,36.645891 -5.427734,45.310549 -1.555151,14.73086 4.905147,30.23123 17.8125,38.24414 8.443496,5.24173 16.753211,8.20267 25.394531,11.89648 7.683828,3.28453 14.683127,6.43395 24.042967,14.29883 l 0.35547,0.29688 0.35352,-0.29688 c 9.35984,-7.86487 16.36109,-11.01429 24.04492,-14.29883 8.64132,-3.69381 16.94908,-6.65475 25.39258,-11.89648 12.90735,-8.01291 19.3696,-23.51328 17.81445,-38.24414 -0.91474,-8.664658 -6.69729,-24.177797 -5.42969,-45.310549 0.56382,-9.399681 2.82735,-18.318275 8.41211,-24.980469 l 0.31445,-0.375 -19.53906,-20.728516 z m 0.476563,1.09961 H 163.85156 l 18.58008,19.71289 c -5.56508,6.872447 -7.82943,15.849153 -8.39062,25.205078 -1.2815,21.364433 4.55613,37.18067 5.43359,45.492186 1.51324,14.33389 -4.7946,29.4295 -17.30078,37.19336 -8.32631,5.16898 -16.56626,8.11004 -25.2461,11.82031 -7.59401,3.24615 -14.69262,6.47651 -23.96484,14.19532 C 103.69008,159.44062 96.590458,156.21113 88.996094,152.96484 80.316251,149.25456 72.076303,146.31351 63.75,141.14453 51.243815,133.38067 44.93793,118.28506 46.451172,103.95117 47.328625,95.639655 53.164305,79.823417 51.882812,58.458984 51.321563,49.102126 49.058488,40.12466 43.492187,33.251953 Z"
           id="path2564" /></g><g
         id="g2582"
         style="stroke-width:0.999764;stroke-dasharray:none"
         transform="matrix(0.28086626,0,0,0.28086626,17.374394,9.1031396)"><path
           style="color:#000000;fill:#007f3d;stroke-width:0.999764;stroke-dasharray:none"
           d="m 34.001957,96.696484 c -0.626918,0.0022 -1.297265,0.0507 -2.010937,0.152344 -2.226104,0.317063 -6.649343,2.48388 -4.989844,8.408982 1.208677,4.31548 7.273341,5.85726 7.366406,9.40782 0.145108,5.53609 -7.911282,10.36437 -9.325781,16.12812 -3.325487,13.55058 8.962144,27.02583 28.220313,38.1625 4.527703,2.6183 9.575498,5.03901 14.964062,7.20508 8.765532,3.52352 17.36426,5.33196 27.061328,11.10859 7.142966,4.25512 13.123306,8.98726 17.674616,14.07383 4.5513,-5.08657 10.53125,-9.81871 17.67422,-14.07383 9.69707,-5.77663 18.29578,-7.58507 27.06132,-11.10859 5.38856,-2.16607 10.43636,-4.58678 14.96407,-7.20508 19.25817,-11.13667 31.54619,-24.61192 28.2207,-38.1625 -1.4145,-5.76375 -9.47088,-10.59203 -9.32578,-16.12812 0.0931,-3.55056 6.15735,-5.09234 7.36601,-9.40782 1.65951,-5.925102 -2.76373,-8.091919 -4.98984,-8.408982 -5.70937,-0.813183 -8.63028,1.753896 -8.95664,4.538672 -0.4269,3.64275 0.46671,7.00321 -0.13672,13.37539 -2.40962,25.44572 -25.43394,34.7667 -40.03672,40.78399 -10.93491,4.50588 -23.42598,11.12185 -31.84062,17.32265 -8.41464,-6.2008 -20.906112,-12.81677 -31.841022,-17.32265 -14.602777,-6.01729 -37.626702,-15.33827 -40.036328,-40.78399 -0.603426,-6.37218 0.290185,-9.73264 -0.136719,-13.37539 -0.285559,-2.436679 -2.557669,-4.706348 -6.946094,-4.691016 z"
           id="path2574" /><path
           style="color:#000000;fill:#d9aa16;stroke-width:0.999764;stroke-dasharray:none"
           d="m 34,96.146484 c -0.653907,0.0023 -1.348849,0.05322 -2.085938,0.158203 -1.235861,0.176024 -2.994348,0.829047 -4.285156,2.279297 -1.290808,1.450246 -2.026875,3.720746 -1.158203,6.822266 0.664182,2.37141 2.608112,3.90233 4.285156,5.26953 0.838523,0.6836 1.619289,1.3299 2.171875,1.98438 0.552587,0.65447 0.871432,1.28726 0.890625,2.01953 0.06546,2.49733 -1.787473,5.00467 -3.951172,7.61328 -2.163698,2.60861 -4.602991,5.28706 -5.359375,8.36914 -1.710172,6.96855 0.612291,13.91766 5.742188,20.45703 5.129897,6.53937 13.067917,12.72142 22.736328,18.3125 4.55388,2.63344 9.625312,5.06561 15.035156,7.24023 8.820589,3.54566 17.366773,5.34103 26.984375,11.07032 7.104891,4.23243 13.042181,8.93428 17.546871,13.96875 l 0.41016,0.45703 0.4082,-0.45703 c 4.5047,-5.03448 10.44199,-9.73632 17.54688,-13.96875 9.6176,-5.72929 18.16378,-7.52466 26.98437,-11.07032 5.40984,-2.17462 10.48127,-4.60679 15.03516,-7.24023 9.66841,-5.59108 17.60633,-11.77313 22.73633,-18.3125 5.12999,-6.53937 7.45236,-13.48847 5.74219,-20.45703 -0.75639,-3.08208 -3.19373,-5.76053 -5.35743,-8.36914 -2.16369,-2.60861 -4.01662,-5.11595 -3.95117,-7.61328 0.0192,-0.73228 0.33807,-1.36506 0.89063,-2.01953 0.55255,-0.65448 1.33145,-1.30078 2.16992,-1.98438 1.67694,-1.3672 3.62099,-2.89814 4.28515,-5.26953 0.86868,-3.10152 0.13261,-5.37202 -1.1582,-6.822266 -1.29081,-1.45025 -3.04929,-2.103273 -4.28515,-2.279297 -2.94763,-0.419829 -5.23776,0.02439 -6.85547,0.992188 -1.61772,0.967798 -2.54163,2.465961 -2.72461,4.027345 -0.44178,3.76971 0.45824,7.08335 -0.13867,13.38672 -1.18991,12.56544 -7.43887,21.10027 -15.24024,27.29883 -7.80137,6.19855 -17.15399,10.01997 -24.45703,13.02929 -10.84647,4.46944 -23.16385,10.98988 -31.63086,17.16992 -8.46702,-6.18006 -20.786317,-12.70047 -31.632812,-17.16992 -7.303032,-3.00932 -16.655762,-6.83074 -24.457031,-13.02929 -7.80127,-6.19856 -14.050328,-14.73339 -15.240235,-27.29883 -0.596909,-6.30337 0.303111,-9.61701 -0.138671,-13.38672 C 41.173921,98.591779 38.578718,96.130488 34,96.146484 Z m 0.0039,1.09961 c 4.198123,-0.01467 6.14754,2.064165 6.398438,4.205076 0.412024,3.51578 -0.475176,6.92231 0.134765,13.36328 1.219718,12.88025 7.686613,21.72897 15.650391,28.05664 7.963778,6.32768 17.424879,10.17564 24.724609,13.1836 10.895975,4.48983 23.368837,11.10039 31.724607,17.25781 l 0.32617,0.24023 0.32617,-0.24023 c 8.35578,-6.15742 20.82669,-12.76798 31.72266,-17.25781 7.29973,-3.00796 16.76073,-6.85592 24.72461,-13.1836 7.96387,-6.32767 14.43067,-15.17638 15.65039,-28.05664 0.60994,-6.44097 -0.27726,-9.8475 0.13476,-13.36328 0.14338,-1.22339 0.8456,-2.402297 2.19727,-3.210936 1.35167,-0.808638 3.37498,-1.241008 6.13672,-0.847656 0.99024,0.14104 2.55668,0.730131 3.61914,1.923828 1.06246,1.193694 1.7088,2.969394 0.91797,5.792974 -0.54449,1.94408 -2.23735,3.34269 -3.91797,4.71289 -0.84031,0.68509 -1.66991,1.35889 -2.31836,2.12695 -0.64845,0.76806 -1.12109,1.65817 -1.14844,2.70117 -0.0796,3.03875 2.02129,5.71522 4.20313,8.3457 2.18184,2.63049 4.4786,5.24803 5.13672,7.92969 1.61531,6.58201 -0.54189,13.14557 -5.53907,19.51563 -4.99717,6.37006 -12.83213,12.49348 -22.42187,18.03906 -4.50153,2.60316 -9.52726,5.01241 -14.89453,7.16992 -8.71047,3.50138 -17.36021,5.32253 -27.13672,11.14648 -6.99595,4.16754 -12.84371,8.80961 -17.39453,13.79688 -4.55073,-4.9869 -10.39711,-9.62962 -17.392577,-13.79688 -9.776513,-5.82395 -18.426261,-7.6451 -27.136718,-11.14648 -5.367273,-2.15751 -10.393015,-4.56676 -14.894532,-7.16992 -9.589738,-5.54558 -17.424796,-11.66901 -22.421875,-18.03906 -4.997079,-6.37006 -7.154374,-12.93361 -5.539062,-19.51563 0.658114,-2.68166 2.954878,-5.2992 5.136719,-7.92969 2.18184,-2.63048 4.284727,-5.30695 4.205078,-8.3457 -0.02734,-1.04301 -0.501908,-1.93311 -1.150391,-2.70117 -0.648483,-0.76806 -1.476046,-1.44186 -2.316406,-2.12695 -1.68072,-1.3702 -3.375429,-2.76883 -3.919922,-4.71289 -0.790826,-2.82358 -0.144492,-4.59928 0.917969,-5.792974 1.06246,-1.193697 2.6289,-1.782788 3.61914,-1.923828 0.690254,-0.09831 1.33562,-0.144379 1.935547,-0.146484 z"
           id="path2576" /></g><g
         id="g3349"
         style="stroke-width:0.999764;stroke-dasharray:none"
         transform="matrix(0.28086626,0,0,0.28086626,17.374341,9.1031396)"><g
           id="g5312"
           transform="translate(-0.02480402)"
           style="stroke-width:0.999764;stroke-dasharray:none"><path
             id="path5285"
             style="display:inline;opacity:1;fill:#2e3192;fill-opacity:1;fill-rule:evenodd;stroke:none;stroke-width:0.999764;stroke-dasharray:none;stop-color:#000000"
             d="M 112.98672,117.2332 V 89.815625 L 83.805859,76.089062 A 32.820499,28.2292 0 0 0 80.166406,89.003906 32.820499,28.2292 0 0 0 112.98672,117.2332 Z" /><path
             id="path5306"
             style="display:inline;opacity:1;fill:#00aeef;fill-opacity:1;fill-rule:evenodd;stroke:none;stroke-width:0.999764;stroke-dasharray:none;stop-color:#000000"
             d="M 142.16914,76.088281 112.98672,89.815625 V 117.2332 a 32.820499,28.2292 0 0 0 32.8207,-28.229294 32.820499,28.2292 0 0 0 -3.63828,-12.915625 z" /><path
             id="path5303"
             style="display:inline;opacity:1;fill:#ed1c24;fill-opacity:1;fill-rule:evenodd;stroke:none;stroke-width:0.999764;stroke-dasharray:none;stop-color:#000000"
             d="M 112.98672,60.774609 A 32.820499,28.2292 0 0 0 83.805859,76.089062 L 112.98672,89.815625 142.16914,76.088281 A 32.820499,28.2292 0 0 0 112.98672,60.774609 Z" /></g><path
           id="path4472"
           style="color:#000000;fill:#d9aa16;fill-rule:evenodd;stroke-width:0.999764;stroke-dasharray:none"
           d="m 112.96309,60.224609 c -18.381893,10e-7 -33.371103,12.843186 -33.371102,28.779297 -6e-6,15.936114 14.989206,28.779294 33.371102,28.779294 18.38189,0 33.36915,-12.84318 33.36914,-28.779294 0,-15.936112 -14.98726,-28.779297 -33.36914,-28.779297 z m 0,1.09961 c 12.29581,-10e-7 22.94781,5.886921 28.39727,14.52539 L 112.96192,89.208594 84.564254,75.849609 C 90.014288,67.21114 100.66728,61.324219 112.96309,61.324219 Z M 83.995504,76.797656 112.41231,90.165625 V 116.67773 C 94.7978,116.42512 80.691592,104.09175 80.691597,89.003906 c 0,-4.376553 1.188806,-8.52063 3.303907,-12.20625 z m 57.933606,0 c 2.11487,3.68562 3.30351,7.829697 3.30351,12.20625 1e-5,15.088404 -14.10533,27.422094 -31.7207,27.673824 V 90.165625 Z" /></g><g
         id="g1912"
         transform="matrix(0.28086626,0,0,0.28086626,17.36739,9.1031396)"
         style="stroke-width:0.999764;stroke-dasharray:none"><path
           d="m 50.634958,37.752226 c 0.243673,0.03362 0.584816,0.05884 0.990938,0.05884 0.917836,0 1.470161,-0.201768 1.795059,-0.571679 0.259919,-0.277428 0.406122,-0.638931 0.406122,-1.109725 0,-0.622123 -0.341142,-1.16858 -0.974692,-1.353536 v -0.03362 c 0.544203,-0.243804 0.795999,-0.731413 0.795999,-1.235835 0,-0.395132 -0.121837,-0.773449 -0.414245,-1.025661 -0.381754,-0.336282 -0.877223,-0.403538 -1.388937,-0.403538 -0.46298,0 -0.885347,0.03362 -1.210244,0.109291 z m 1.06404,-4.817239 c 0.06498,-0.02522 0.162448,-0.03363 0.276162,-0.03363 0.438613,0 0.625429,0.319469 0.625429,0.731413 0,0.462389 -0.292408,0.798671 -0.674163,0.798671 h -0.227428 z m 0,2.311938 h 0.227428 c 0.422367,0.0084 0.795999,0.302654 0.795999,0.865927 0,0.580086 -0.357387,0.849111 -0.787876,0.849111 -0.09747,0 -0.170572,0 -0.235551,-0.01682 z"
           style="font-size:8.26352px;font-family:'Myriad Pro';-inkscape-font-specification:'Myriad Pro';fill:#d9aa16;fill-opacity:1;stroke:none;stroke-width:0.999764;stroke-dasharray:none"
           id="path1142" /><path
           d="m 56.410012,36.474354 0.235551,1.294686 h 1.03155 l -1.06404,-5.666351 H 55.33785 l -1.185877,5.666351 h 1.03155 l 0.243674,-1.294686 z m -0.877223,-0.857519 0.203061,-1.176987 c 0.05685,-0.327874 0.138082,-0.916367 0.194938,-1.294685 h 0.02437 c 0.04873,0.378318 0.121837,0.94159 0.178693,1.286279 l 0.178694,1.185393 z"
           style="font-size:8.26352px;font-family:'Myriad Pro';-inkscape-font-specification:'Myriad Pro';fill:#d9aa16;fill-opacity:1;stroke:none;stroke-width:0.999764;stroke-dasharray:none"
           id="path1144" /><path
           d="m 59.212256,37.76904 v -1.269464 c 0,-1.143359 -0.04061,-2.017692 -0.06498,-2.589371 h 0.01625 c 0.121836,0.512829 0.373632,1.227429 0.552325,1.70663 l 0.836612,2.152205 h 0.974693 v -5.666351 h -0.934081 v 1.25265 c 0,1.042475 0.0731,2.026099 0.105592,2.623 h -0.01625 C 60.52809,35.482323 60.260049,34.759316 60.097601,34.32215 l -0.844735,-2.219461 h -0.974693 v 5.666351 z"
           style="font-size:8.26352px;font-family:'Myriad Pro';-inkscape-font-specification:'Myriad Pro';fill:#d9aa16;fill-opacity:1;stroke:none;stroke-width:0.999764;stroke-dasharray:none"
           id="path1146" /><path
           d="m 65.507154,34.591176 h -1.470162 v 0.899553 h 0.487347 v 1.37035 c -0.04062,0.01682 -0.113714,0.02522 -0.211183,0.02522 -0.49547,0 -1.007184,-0.487609 -1.007184,-1.849551 0,-1.47964 0.576694,-1.992471 1.299592,-1.992471 0.26804,0 0.471101,0.05044 0.625428,0.126106 l 0.186816,-0.949996 c -0.170571,-0.08407 -0.479224,-0.168141 -0.893469,-0.168141 -1.161509,0 -2.298651,0.857519 -2.323018,2.917246 -0.01625,0.975218 0.235551,1.815923 0.706652,2.286717 0.36551,0.378317 0.836611,0.563273 1.462039,0.563273 0.398,0 0.901591,-0.100882 1.137142,-0.20177 z"
           style="font-size:8.26352px;font-family:'Myriad Pro';-inkscape-font-specification:'Myriad Pro';fill:#d9aa16;fill-opacity:1;stroke:none;stroke-width:0.999764;stroke-dasharray:none"
           id="path1148" /><path
           d="m 66.303155,37.76904 h 2.469222 v -0.933182 h -1.405182 v -4.733169 h -1.06404 z"
           style="font-size:8.26352px;font-family:'Myriad Pro';-inkscape-font-specification:'Myriad Pro';fill:#d9aa16;fill-opacity:1;stroke:none;stroke-width:0.999764;stroke-dasharray:none"
           id="path1150" /><path
           d="m 71.306567,36.474354 0.235551,1.294686 h 1.03155 l -1.06404,-5.666351 h -1.275223 l -1.185876,5.666351 h 1.03155 l 0.243673,-1.294686 z m -0.877223,-0.857519 0.203061,-1.176987 c 0.05686,-0.327874 0.138081,-0.916367 0.194939,-1.294685 h 0.02437 c 0.04873,0.378318 0.121836,0.94159 0.178694,1.286279 l 0.178693,1.185393 z"
           style="font-size:8.26352px;font-family:'Myriad Pro';-inkscape-font-specification:'Myriad Pro';fill:#d9aa16;fill-opacity:1;stroke:none;stroke-width:0.999764;stroke-dasharray:none"
           id="path1152" /><path
           d="m 73.174729,37.752226 c 0.211184,0.02522 0.544204,0.05884 0.877224,0.05884 0.76351,0 1.307713,-0.176548 1.673223,-0.546458 0.479225,-0.437167 0.76351,-1.25265 0.76351,-2.396009 0,-1.101323 -0.243674,-1.849551 -0.714775,-2.286718 -0.349265,-0.336281 -0.828489,-0.504423 -1.518896,-0.504423 -0.422367,0 -0.812245,0.04204 -1.080286,0.109292 z m 1.064041,-4.766797 c 0.06498,-0.02522 0.13808,-0.02522 0.211183,-0.02522 0.641672,0 0.934081,0.706193 0.934081,1.866365 0,1.563711 -0.446735,2.084948 -0.958448,2.084948 -0.05686,0 -0.138082,0 -0.186816,-0.01682 z"
           style="font-size:8.26352px;font-family:'Myriad Pro';-inkscape-font-specification:'Myriad Pro';fill:#d9aa16;fill-opacity:1;stroke:none;stroke-width:0.999764;stroke-dasharray:none"
           id="path1154" /><path
           d="m 79.477738,34.364185 h -1.250856 v -1.303093 h 1.315836 v -0.958403 h -2.379876 v 5.666351 h 2.477345 v -0.958404 h -1.413305 v -1.530083 h 1.250856 z"
           style="font-size:8.26352px;font-family:'Myriad Pro';-inkscape-font-specification:'Myriad Pro';fill:#d9aa16;fill-opacity:1;stroke:none;stroke-width:0.999764;stroke-dasharray:none"
           id="path1156" /><path
           d="m 80.086914,37.592493 c 0.178694,0.109291 0.609183,0.22699 1.047795,0.22699 1.072162,0 1.811305,-0.680972 1.811305,-1.715039 0,-0.596901 -0.268041,-1.16858 -0.990939,-1.62256 -0.592938,-0.36991 -0.755387,-0.546459 -0.755387,-0.882741 0,-0.302653 0.219306,-0.588493 0.674163,-0.588493 0.308653,0 0.544204,0.09248 0.69853,0.193362 l 0.170572,-0.949996 c -0.16245,-0.100883 -0.503592,-0.201769 -0.860979,-0.201769 -1.145265,0 -1.73008,0.756634 -1.73008,1.664596 0,0.512829 0.284285,1.10973 1.03155,1.580524 0.462979,0.311062 0.706652,0.51283 0.706652,0.924776 0,0.369911 -0.243673,0.638936 -0.747265,0.638936 -0.308652,0 -0.682284,-0.09248 -0.90159,-0.218583 z"
           style="font-size:8.26352px;font-family:'Myriad Pro';-inkscape-font-specification:'Myriad Pro';fill:#d9aa16;fill-opacity:1;stroke:none;stroke-width:0.999764;stroke-dasharray:none"
           id="path1158" /><path
           d="m 83.563312,32.102689 v 5.666351 h 1.064039 v -2.370787 h 1.112775 v 2.370787 h 1.064039 v -5.666351 h -1.064039 v 2.269903 h -1.112775 v -2.269903 z"
           style="font-size:8.26352px;font-family:'Myriad Pro';-inkscape-font-specification:'Myriad Pro';fill:#d9aa16;fill-opacity:1;stroke:none;stroke-width:0.999764;stroke-dasharray:none"
           id="path1160" /><path
           d="m 89.005345,32.102689 v 3.497332 c 0,1.420792 0.446735,2.236276 1.591999,2.236276 1.055917,0 1.583876,-0.790263 1.583876,-2.244682 v -3.488926 h -1.06404 v 3.682288 c 0,0.857519 -0.219306,1.084509 -0.527958,1.084509 -0.276164,0 -0.519837,-0.252212 -0.519837,-1.084509 v -3.682288 z"
           style="font-size:8.26352px;font-family:'Myriad Pro';-inkscape-font-specification:'Myriad Pro';fill:#d9aa16;fill-opacity:1;stroke:none;stroke-width:0.999764;stroke-dasharray:none"
           id="path1162" /><path
           d="m 94.033136,37.76904 v -1.269464 c 0,-1.143359 -0.04061,-2.017692 -0.06498,-2.589371 h 0.01625 c 0.121836,0.512829 0.373632,1.227429 0.552325,1.70663 l 0.836612,2.152205 h 0.974693 v -5.666351 h -0.934081 v 1.25265 c 0,1.042475 0.0731,2.026099 0.105592,2.623 h -0.01625 C 95.34897,35.482323 95.080929,34.759316 94.91848,34.32215 l -0.844734,-2.219461 h -0.974693 v 5.666351 z"
           style="font-size:8.26352px;font-family:'Myriad Pro';-inkscape-font-specification:'Myriad Pro';fill:#d9aa16;fill-opacity:1;stroke:none;stroke-width:0.999764;stroke-dasharray:none"
           id="path1164" /><path
           d="m 97.290244,32.102689 v 5.666351 h 1.06404 v -5.666351 z"
           style="font-size:8.26352px;font-family:'Myriad Pro';-inkscape-font-specification:'Myriad Pro';fill:#d9aa16;fill-opacity:1;stroke:none;stroke-width:0.999764;stroke-dasharray:none"
           id="path1166" /><path
           d="m 101.26211,37.76904 1.25086,-5.666351 h -1.16963 l -0.37363,2.421231 c -0.0975,0.638935 -0.18682,1.319906 -0.25993,1.99247 h -0.0162 c -0.0731,-0.664157 -0.18681,-1.361942 -0.28429,-1.96725 l -0.38988,-2.446451 h -1.177751 l 1.226501,5.666351 z"
           style="font-size:8.26352px;font-family:'Myriad Pro';-inkscape-font-specification:'Myriad Pro';fill:#d9aa16;fill-opacity:1;stroke:none;stroke-width:0.999764;stroke-dasharray:none"
           id="path1168" /><path
           d="m 105.29084,34.364185 h -1.25086 v -1.303093 h 1.31583 v -0.958403 h -2.37987 v 5.666351 h 2.47735 v -0.958404 h -1.41331 v -1.530083 h 1.25086 z"
           style="font-size:8.26352px;font-family:'Myriad Pro';-inkscape-font-specification:'Myriad Pro';fill:#d9aa16;fill-opacity:1;stroke:none;stroke-width:0.999764;stroke-dasharray:none"
           id="path1170" /><path
           d="m 106.17618,37.76904 h 1.06403 v -2.261497 h 0.15433 c 0.3574,0 0.52796,0.20177 0.62543,0.907963 0.0812,0.622121 0.20306,1.193801 0.26805,1.353534 h 1.11277 c -0.0975,-0.210176 -0.24367,-0.907961 -0.34927,-1.53849 -0.10559,-0.605307 -0.29241,-0.966811 -0.66604,-1.118137 v -0.01682 c 0.56045,-0.269025 0.84474,-0.815483 0.84474,-1.420791 0,-0.487609 -0.0975,-0.865926 -0.43049,-1.176987 -0.35739,-0.336282 -0.87723,-0.420353 -1.46204,-0.420353 -0.40612,0 -0.82849,0.04204 -1.16151,0.109292 z m 1.06403,-4.800425 c 0.0569,-0.02522 0.16245,-0.03362 0.2518,-0.03362 0.47923,0.01682 0.66604,0.361503 0.66604,0.840704 0,0.496017 -0.26803,0.882741 -0.73101,0.882741 h -0.18683 z"
           style="font-size:8.26352px;font-family:'Myriad Pro';-inkscape-font-specification:'Myriad Pro';fill:#d9aa16;fill-opacity:1;stroke:none;stroke-width:0.999764;stroke-dasharray:none"
           id="path1172" /><path
           d="m 109.71756,37.592493 c 0.17869,0.109291 0.60917,0.22699 1.04779,0.22699 1.07216,0 1.81131,-0.680972 1.81131,-1.715039 0,-0.596901 -0.26805,-1.16858 -0.99094,-1.62256 -0.59294,-0.36991 -0.75539,-0.546459 -0.75539,-0.882741 0,-0.302653 0.21931,-0.588493 0.67416,-0.588493 0.30866,0 0.54421,0.09248 0.69854,0.193362 l 0.17056,-0.949996 c -0.16245,-0.100883 -0.50359,-0.201769 -0.86097,-0.201769 -1.14527,0 -1.73008,0.756634 -1.73008,1.664596 0,0.512829 0.28428,1.10973 1.03155,1.580524 0.46298,0.311062 0.70665,0.51283 0.70665,0.924776 0,0.369911 -0.24367,0.638936 -0.74726,0.638936 -0.30866,0 -0.68229,-0.09248 -0.90159,-0.218583 z"
           style="font-size:8.26352px;font-family:'Myriad Pro';-inkscape-font-specification:'Myriad Pro';fill:#d9aa16;fill-opacity:1;stroke:none;stroke-width:0.999764;stroke-dasharray:none"
           id="path1174" /><path
           d="m 113.19395,32.102689 v 5.666351 h 1.06404 v -5.666351 z"
           style="font-size:8.26352px;font-family:'Myriad Pro';-inkscape-font-specification:'Myriad Pro';fill:#d9aa16;fill-opacity:1;stroke:none;stroke-width:0.999764;stroke-dasharray:none"
           id="path1176" /><path
           d="m 115.80125,37.76904 h 1.06405 v -4.649098 h 0.97469 v -1.017253 h -3.0053 v 1.017253 h 0.96656 z"
           style="font-size:8.26352px;font-family:'Myriad Pro';-inkscape-font-specification:'Myriad Pro';fill:#d9aa16;fill-opacity:1;stroke:none;stroke-width:0.999764;stroke-dasharray:none"
           id="path1178" /><path
           d="m 120.34981,37.76904 v -2.211053 l 1.22649,-3.455298 h -1.10465 l -0.3249,1.328314 c -0.0975,0.403538 -0.18681,0.815483 -0.2518,1.227429 h -0.0162 c -0.0812,-0.420352 -0.18682,-0.840705 -0.2843,-1.202208 l -0.37363,-1.353535 h -1.13714 l 1.20212,3.497332 v 2.169019 z"
           style="font-size:8.26352px;font-family:'Myriad Pro';-inkscape-font-specification:'Myriad Pro';fill:#d9aa16;fill-opacity:1;stroke:none;stroke-width:0.999764;stroke-dasharray:none"
           id="path1180" /><path
           d="m 124.76844,32.035433 c -1.21024,0 -1.80318,1.33672 -1.80318,2.883617 0,1.555304 0.48734,2.917247 1.73008,2.917247 1.03967,0 1.77069,-0.865927 1.77069,-3.001317 0,-1.294685 -0.37364,-2.799547 -1.69759,-2.799547 z m -0.0406,0.958403 c 0.47923,0 0.62543,0.899555 0.62543,1.891586 0,1.151766 -0.17057,1.992471 -0.6173,1.992471 -0.43049,0 -0.66604,-0.65575 -0.66604,-1.942029 0,-1.219021 0.23555,-1.942028 0.65791,-1.942028 z"
           style="font-size:8.26352px;font-family:'Myriad Pro';-inkscape-font-specification:'Myriad Pro';fill:#d9aa16;fill-opacity:1;stroke:none;stroke-width:0.999764;stroke-dasharray:none"
           id="path1182" /><path
           d="m 127.14019,37.76904 h 1.06404 v -2.337159 h 1.23462 v -0.916369 h -1.23462 v -1.45442 h 1.31584 v -0.958403 h -2.37988 z"
           style="font-size:8.26352px;font-family:'Myriad Pro';-inkscape-font-specification:'Myriad Pro';fill:#d9aa16;fill-opacity:1;stroke:none;stroke-width:0.999764;stroke-dasharray:none"
           id="path1184" /><path
           d="m 131.61567,37.76904 h 1.06404 v -2.110169 c 0.065,0 0.13808,0 0.21118,0 0.43861,0 0.99094,-0.168142 1.33208,-0.538051 0.28428,-0.319468 0.46298,-0.748228 0.46298,-1.361943 0,-0.479201 -0.14621,-0.949996 -0.47111,-1.244243 -0.35738,-0.344689 -0.85285,-0.437166 -1.4864,-0.437166 -0.40613,0 -0.81224,0.04204 -1.11277,0.109291 z m 1.06404,-4.75839 c 0.065,-0.02522 0.16244,-0.04204 0.25991,-0.04204 0.49548,0 0.69041,0.386724 0.69041,0.88274 0,0.529644 -0.24368,0.924775 -0.77976,0.924775 -0.065,0 -0.12183,0 -0.17056,-0.01682 z"
           style="font-size:8.26352px;font-family:'Myriad Pro';-inkscape-font-specification:'Myriad Pro';fill:#d9aa16;fill-opacity:1;stroke:none;stroke-width:0.999764;stroke-dasharray:none"
           id="path1186" /><path
           d="m 135.32762,37.76904 h 1.06404 v -2.261497 h 0.15433 c 0.35739,0 0.52796,0.20177 0.62543,0.907963 0.0812,0.622121 0.20306,1.193801 0.26804,1.353534 h 1.11278 c -0.0975,-0.210176 -0.24368,-0.907961 -0.34927,-1.53849 -0.10559,-0.605307 -0.29241,-0.966811 -0.66604,-1.118137 v -0.01682 c 0.56045,-0.269025 0.84474,-0.815483 0.84474,-1.420791 0,-0.487609 -0.0975,-0.865926 -0.43049,-1.176987 -0.35739,-0.336282 -0.87723,-0.420353 -1.46204,-0.420353 -0.40613,0 -0.82849,0.04204 -1.16152,0.109292 z m 1.06404,-4.800425 c 0.0569,-0.02522 0.16245,-0.03362 0.2518,-0.03362 0.47923,0.01682 0.66604,0.361503 0.66604,0.840704 0,0.496017 -0.26803,0.882741 -0.73101,0.882741 h -0.18683 z"
           style="font-size:8.26352px;font-family:'Myriad Pro';-inkscape-font-specification:'Myriad Pro';fill:#d9aa16;fill-opacity:1;stroke:none;stroke-width:0.999764;stroke-dasharray:none"
           id="path1188" /><path
           d="m 140.68031,32.035433 c -1.21025,0 -1.80318,1.33672 -1.80318,2.883617 0,1.555304 0.48735,2.917247 1.73008,2.917247 1.03968,0 1.77069,-0.865927 1.77069,-3.001317 0,-1.294685 -0.37363,-2.799547 -1.69759,-2.799547 z m -0.0406,0.958403 c 0.47922,0 0.62543,0.899555 0.62543,1.891586 0,1.151766 -0.17057,1.992471 -0.61731,1.992471 -0.43049,0 -0.66603,-0.65575 -0.66603,-1.942029 0,-1.219021 0.23554,-1.942028 0.65791,-1.942028 z"
           style="font-size:8.26352px;font-family:'Myriad Pro';-inkscape-font-specification:'Myriad Pro';fill:#d9aa16;fill-opacity:1;stroke:none;stroke-width:0.999764;stroke-dasharray:none"
           id="path1190" /><path
           d="m 143.05207,37.76904 h 1.06405 v -2.337159 h 1.2346 v -0.916369 h -1.2346 v -1.45442 h 1.31583 v -0.958403 h -2.37988 z"
           style="font-size:8.26352px;font-family:'Myriad Pro';-inkscape-font-specification:'Myriad Pro';fill:#d9aa16;fill-opacity:1;stroke:none;stroke-width:0.999764;stroke-dasharray:none"
           id="path1192" /><path
           d="m 148.55096,34.364185 h -1.25086 v -1.303093 h 1.31584 v -0.958403 h -2.37987 v 5.666351 h 2.47734 v -0.958404 h -1.41331 v -1.530083 h 1.25086 z"
           style="font-size:8.26352px;font-family:'Myriad Pro';-inkscape-font-specification:'Myriad Pro';fill:#d9aa16;fill-opacity:1;stroke:none;stroke-width:0.999764;stroke-dasharray:none"
           id="path1194" /><path
           d="m 149.16014,37.592493 c 0.17869,0.109291 0.60919,0.22699 1.0478,0.22699 1.07216,0 1.8113,-0.680972 1.8113,-1.715039 0,-0.596901 -0.26804,-1.16858 -0.99094,-1.62256 -0.59293,-0.36991 -0.75539,-0.546459 -0.75539,-0.882741 0,-0.302653 0.21931,-0.588493 0.67417,-0.588493 0.30865,0 0.5442,0.09248 0.69853,0.193362 l 0.17056,-0.949996 c -0.16244,-0.100883 -0.50358,-0.201769 -0.86097,-0.201769 -1.14527,0 -1.73008,0.756634 -1.73008,1.664596 0,0.512829 0.28428,1.10973 1.03155,1.580524 0.46298,0.311062 0.70665,0.51283 0.70665,0.924776 0,0.369911 -0.24367,0.638936 -0.74726,0.638936 -0.30865,0 -0.68229,-0.09248 -0.90159,-0.218583 z"
           style="font-size:8.26352px;font-family:'Myriad Pro';-inkscape-font-specification:'Myriad Pro';fill:#d9aa16;fill-opacity:1;stroke:none;stroke-width:0.999764;stroke-dasharray:none"
           id="path1196" /><path
           d="m 152.36037,37.592493 c 0.1787,0.109291 0.60919,0.22699 1.0478,0.22699 1.07216,0 1.8113,-0.680972 1.8113,-1.715039 0,-0.596901 -0.26803,-1.16858 -0.99094,-1.62256 -0.59293,-0.36991 -0.75538,-0.546459 -0.75538,-0.882741 0,-0.302653 0.21931,-0.588493 0.67417,-0.588493 0.30864,0 0.54419,0.09248 0.69852,0.193362 l 0.17057,-0.949996 c -0.16245,-0.100883 -0.50358,-0.201769 -0.86098,-0.201769 -1.14525,0 -1.73008,0.756634 -1.73008,1.664596 0,0.512829 0.2843,1.10973 1.03156,1.580524 0.46298,0.311062 0.70665,0.51283 0.70665,0.924776 0,0.369911 -0.24367,0.638936 -0.74727,0.638936 -0.30865,0 -0.68228,-0.09248 -0.90159,-0.218583 z"
           style="font-size:8.26352px;font-family:'Myriad Pro';-inkscape-font-specification:'Myriad Pro';fill:#d9aa16;fill-opacity:1;stroke:none;stroke-width:0.999764;stroke-dasharray:none"
           id="path1198" /><path
           d="m 155.83677,32.102689 v 5.666351 h 1.06405 v -5.666351 z"
           style="font-size:8.26352px;font-family:'Myriad Pro';-inkscape-font-specification:'Myriad Pro';fill:#d9aa16;fill-opacity:1;stroke:none;stroke-width:0.999764;stroke-dasharray:none"
           id="path1200" /><path
           d="m 159.38628,32.035433 c -1.21025,0 -1.80318,1.33672 -1.80318,2.883617 0,1.555304 0.48734,2.917247 1.73008,2.917247 1.03967,0 1.77068,-0.865927 1.77068,-3.001317 0,-1.294685 -0.37363,-2.799547 -1.69758,-2.799547 z m -0.0406,0.958403 c 0.47923,0 0.62543,0.899555 0.62543,1.891586 0,1.151766 -0.17057,1.992471 -0.61731,1.992471 -0.43048,0 -0.66604,-0.65575 -0.66604,-1.942029 0,-1.219021 0.23556,-1.942028 0.65792,-1.942028 z"
           style="font-size:8.26352px;font-family:'Myriad Pro';-inkscape-font-specification:'Myriad Pro';fill:#d9aa16;fill-opacity:1;stroke:none;stroke-width:0.999764;stroke-dasharray:none"
           id="path1202" /><path
           d="m 162.69211,37.76904 v -1.269464 c 0,-1.143359 -0.0406,-2.017692 -0.065,-2.589371 h 0.0162 c 0.12183,0.512829 0.37363,1.227429 0.55232,1.70663 l 0.83661,2.152205 h 0.97469 v -5.666351 h -0.93407 v 1.25265 c 0,1.042475 0.0731,2.026099 0.10558,2.623 h -0.0162 c -0.15433,-0.496016 -0.42238,-1.219023 -0.58483,-1.656189 l -0.84472,-2.219461 h -0.9747 v 5.666351 z"
           style="font-size:8.26352px;font-family:'Myriad Pro';-inkscape-font-specification:'Myriad Pro';fill:#d9aa16;fill-opacity:1;stroke:none;stroke-width:0.999764;stroke-dasharray:none"
           id="path1204" /><path
           d="m 167.80113,36.474354 0.23556,1.294686 h 1.03154 l -1.06404,-5.666351 h -1.27522 l -1.18588,5.666351 h 1.03155 l 0.24368,-1.294686 z m -0.87722,-0.857519 0.20306,-1.176987 c 0.0569,-0.327874 0.13808,-0.916367 0.19495,-1.294685 h 0.0244 c 0.0488,0.378318 0.12184,0.94159 0.17869,1.286279 l 0.17869,1.185393 z"
           style="font-size:8.26352px;font-family:'Myriad Pro';-inkscape-font-specification:'Myriad Pro';fill:#d9aa16;fill-opacity:1;stroke:none;stroke-width:0.999764;stroke-dasharray:none"
           id="path1206" /><path
           d="m 169.6693,37.76904 h 2.46923 v -0.933182 h -1.40519 v -4.733169 h -1.06404 z"
           style="font-size:8.26352px;font-family:'Myriad Pro';-inkscape-font-specification:'Myriad Pro';fill:#d9aa16;fill-opacity:1;stroke:none;stroke-width:0.999764;stroke-dasharray:none"
           id="path1208" /><path
           d="m 172.47966,37.592493 c 0.1787,0.109291 0.60918,0.22699 1.04779,0.22699 1.07217,0 1.81131,-0.680972 1.81131,-1.715039 0,-0.596901 -0.26804,-1.16858 -0.99094,-1.62256 -0.59294,-0.36991 -0.75539,-0.546459 -0.75539,-0.882741 0,-0.302653 0.21931,-0.588493 0.67416,-0.588493 0.30866,0 0.54421,0.09248 0.69854,0.193362 l 0.17057,-0.949996 c -0.16245,-0.100883 -0.5036,-0.201769 -0.86098,-0.201769 -1.14527,0 -1.73008,0.756634 -1.73008,1.664596 0,0.512829 0.28428,1.10973 1.03154,1.580524 0.46298,0.311062 0.70666,0.51283 0.70666,0.924776 0,0.369911 -0.24368,0.638936 -0.74726,0.638936 -0.30866,0 -0.68229,-0.09248 -0.90159,-0.218583 z"
           style="font-size:8.26352px;font-family:'Myriad Pro';-inkscape-font-specification:'Myriad Pro';fill:#d9aa16;fill-opacity:1;stroke:none;stroke-width:0.999764;stroke-dasharray:none"
           id="path1210" /></g><g
         id="g2083"
         transform="matrix(0.28086626,0,0,0.28086626,17.447654,9.1031396)"
         style="stroke-width:0.999764;stroke-dasharray:none"><path
           d="m 106.55915,138.54734 c 0,2.12365 0.26545,7.13909 9.9546,7.13909 9.68914,0 9.9546,-5.01544 9.9546,-7.13909 v -12.04538 a 0.1125,0.1125 0 0 0 -0.1125,-0.1125 H 121.431 a 0.1125,0.1125 0 0 0 -0.1125,0.1125 v 10.77119 c 0,1.8582 -0.0796,5.11558 -4.80475,5.11558 -4.72512,0 -4.80476,-3.25738 -4.80476,-5.11558 v -10.77119 a 0.1125,0.1125 0 0 0 -0.1125,-0.1125 h -4.92484 a 0.1125,0.1125 0 0 0 -0.1125,0.1125 z"
           style="font-size:26.5456px;font-family:'Helvetica Neue';-inkscape-font-specification:'Helvetica Neue';opacity:1;fill:#d9aa16;fill-opacity:1;stroke-width:0.999764;stroke-dasharray:none"
           id="path1009" /><path
           d="m 77.686832,136.86473 c 4.421765,2.9803 8.82539,3.03832 10.56194,0.46186 1.176836,-1.74602 0.241312,-4.25297 -1.523982,-5.95337 -0.0504,-0.0486 0.0054,-0.0719 0.04306,-0.0639 1.830324,0.38906 4.224244,0.4558 5.217599,-1.25376 1.484698,-2.55516 -0.14594,-5.40337 -4.68976,-8.3526 l -9.809275,-6.36684 a 0.12049778,0.12049778 0 0 0 -0.162685,0.0297 l -10.486013,14.26231 a 0.10764911,0.10764911 0 0 0 0.02778,0.15383 z m 7.64319,-12.79603 c 1.940628,1.25951 2.775217,2.55009 2.014579,3.67861 -0.789341,1.17112 -2.729566,0.74787 -4.521259,-0.43009 l -5.117254,-3.36438 a 0.10800702,0.10800702 0 0 1 -0.02776,-0.15412 l 2.265989,-3.09018 a 0.12034911,0.12034911 0 0 1 0.162572,-0.0298 z m -3.641505,6.15198 c 1.706435,1.1021 2.827487,2.54601 1.961294,3.97592 -0.731732,1.20794 -2.737295,1.12712 -4.515364,-0.0713 l -6.091602,-3.9076 a 0.10600918,0.10600918 0 0 1 -0.02778,-0.15255 l 2.670761,-3.58627 a 0.12151628,0.12151628 0 0 1 0.163386,-0.0295 z"
           style="font-size:26.916px;font-family:'Helonik Extended';-inkscape-font-specification:'Helonik Extended';opacity:1;fill:#d9aa16;fill-opacity:1;stroke-width:0.999764;stroke-dasharray:none"
           id="path1088" /><path
           d="m 154.30041,126.4107 c 5.05019,-2.89554 4.86705,-6.30224 3.33556,-8.48646 -2.22091,-3.1675 -5.6812,-3.52578 -10.89558,-0.65361 l -8.21876,4.49913 a 0.11320988,0.11320988 103.92776 0 0 -0.0401,0.16171 l 10.229,15.48532 a 0.13273273,0.13273273 13.730727 0 0 0.17529,0.0428 l 4.0111,-2.23175 a 0.11493379,0.11493379 103.96541 0 0 0.0405,-0.163 L 149.2812,129.43 a 0.1164237,0.1164237 103.59713 0 1 0.0398,-0.16437 z m -6.32851,-6.05751 c 2.89825,-1.52532 4.12759,-1.26197 5.10855,-0.19161 1.18924,1.29763 0.55084,2.96122 -1.97115,4.33411 l -3.63048,1.97631 a 0.13477512,0.13477512 13.823818 0 1 -0.17645,-0.0434 l -2.76389,-4.1302 a 0.11069199,0.11069199 104.22641 0 1 0.0404,-0.15952 z"
           id="path1261"
           style="font-size:27.7209px;font-family:'Helonik Extended';-inkscape-font-specification:'Helonik Extended';fill:#d9aa16;fill-opacity:1;stroke-width:0.999764;stroke-dasharray:none" /></g><path
         id="path354"
         style="display:inline;fill:#d9aa16;fill-opacity:1;fill-rule:evenodd;stroke:none;stroke-width:0.2808;stroke-dasharray:none;stroke-opacity:1;stop-color:#000000"
         d="m 32.999729,53.057339 c -0.412907,-0.313641 -0.924086,-0.31295 -1.257792,0.09475 -0.289772,0.354021 -0.270255,0.832962 0.2263,1.211017 0.180145,0.137152 0.348796,0.207967 0.428649,0.222224 0.04088,-0.09121 0.08195,-0.182313 0.123228,-0.273297 -0.08917,-0.02118 -0.218163,-0.08463 -0.323935,-0.16484 -0.29901,-0.226766 -0.318114,-0.528417 -0.132001,-0.763041 0.213329,-0.268927 0.511946,-0.262234 0.762456,-0.0722 0.116046,0.08803 0.192686,0.186444 0.236771,0.263382 0.07961,-0.06369 0.159004,-0.127592 0.23818,-0.191703 -0.03339,-0.07474 -0.136448,-0.200648 -0.301856,-0.32629 z m 7.413774,3.93338 c -0.492709,-0.168837 -0.979507,-0.0063 -1.16753,0.487014 -0.163304,0.428444 0.0068,0.877114 0.596667,1.080194 0.21416,0.07373 0.396709,0.08818 0.477087,0.07667 0.01031,-0.09966 0.02084,-0.199288 0.03156,-0.298864 -0.09143,0.0078 -0.23402,-0.01199 -0.359739,-0.05503 -0.355296,-0.121584 -0.468668,-0.402296 -0.365762,-0.684274 0.117939,-0.323168 0.404504,-0.411082 0.703103,-0.308937 0.138325,0.04732 0.242247,0.116953 0.308445,0.176387 0.05583,-0.08561 0.111408,-0.171345 0.166725,-0.257206 -0.05535,-0.06072 -0.193179,-0.14832 -0.39056,-0.215955 z m 8.008876,1.450829 c -0.486882,-0.01275 -0.851309,0.317272 -0.880042,0.813911 -0.02668,0.461382 0.280684,0.837582 0.809741,0.85187 0.332573,0.009 0.598475,-0.121087 0.749713,-0.339621 0.09372,-0.135414 0.143697,-0.304234 0.142675,-0.496085 -0.0011,-0.185979 -0.05169,-0.35324 -0.142675,-0.487475 -0.13929,-0.205504 -0.372763,-0.334576 -0.679412,-0.3426 z m 10.929357,-2.040235 c -0.450706,0.186172 -0.649568,0.636052 -0.473765,1.101462 0.163349,0.432433 0.597144,0.650888 1.085809,0.44929 0.502478,-0.207302 0.681252,-0.669228 0.476189,-1.125504 -0.19325,-0.429987 -0.622369,-0.617681 -1.088233,-0.425248 z m -7.283975,1.892521 c -0.557073,0.0632 -0.929563,0.414093 -0.88975,0.931651 0.01725,0.223993 0.115267,0.415246 0.279372,0.545341 0.176356,0.138113 0.425026,0.197676 0.759117,0.160296 0.248072,-0.02775 0.477882,-0.117265 0.600382,-0.177345 l -0.112127,-0.835945 c -0.213902,0.0287 -0.428133,0.05487 -0.642628,0.07851 l 0.03219,0.292163 c 0.0938,-0.01034 0.18754,-0.02115 0.281229,-0.03244 l 0.03859,0.320177 c -0.03415,0.01854 -0.113984,0.04014 -0.214585,0.05146 -0.351788,0.03959 -0.599478,-0.153038 -0.628185,-0.466575 -0.02984,-0.32592 0.196718,-0.523318 0.519554,-0.559786 0.203387,-0.02297 0.326038,-0.0052 0.431681,0.02722 0.01413,-0.103005 0.02795,-0.206013 0.04148,-0.309023 -0.09211,-0.02885 -0.270823,-0.05128 -0.496328,-0.0257 z m 14.462254,-6.301596 c -0.420202,0.367067 -0.528029,0.865826 -0.202556,1.268931 0.140841,0.174432 0.329619,0.276246 0.538297,0.290202 0.223241,0.01359 0.461789,-0.07849 0.715496,-0.29917 0.188467,-0.163931 0.326524,-0.368227 0.393109,-0.487446 l -0.567639,-0.621931 c -0.159066,0.145202 -0.319966,0.28834 -0.482635,0.429397 l 0.19218,0.221651 c 0.0712,-0.06172 0.142059,-0.123834 0.212585,-0.186341 l 0.213539,0.240882 c -0.01753,0.03465 -0.0709,0.09778 -0.147202,0.164248 -0.266884,0.232499 -0.579708,0.214385 -0.780797,-0.02699 -0.209065,-0.250943 -0.134835,-0.541221 0.109167,-0.754103 0.153747,-0.134142 0.264251,-0.189116 0.369292,-0.222531 -0.04701,-0.09253 -0.09428,-0.184883 -0.141835,-0.277052 -0.0918,0.02861 -0.250813,0.111583 -0.421001,0.260248 z m -19.797039,6.365019 c -0.207439,-0.01879 -0.390249,-0.02123 -0.510707,-0.01528 l -0.173491,1.579291 c 0.127437,0.01399 0.25497,0.0271 0.382587,0.03936 l 0.06011,-0.62545 c 0.04265,0.0041 0.0853,0.0081 0.127971,0.01199 0.163346,0.01741 0.229759,0.07505 0.266295,0.279535 0.03588,0.211184 0.06835,0.331504 0.09129,0.380953 0.131853,0.01008 0.263782,0.01921 0.395772,0.02744 -0.03001,-0.06649 -0.06728,-0.281878 -0.112232,-0.469258 -0.03368,-0.141163 -0.0901,-0.255051 -0.197631,-0.308652 l 5.62e-4,-0.0072 c 0.131428,-0.03107 0.304411,-0.15776 0.318319,-0.372802 0.0097,-0.150067 -0.04327,-0.268466 -0.129869,-0.348679 -0.106746,-0.09638 -0.267455,-0.148443 -0.518957,-0.171244 0,-3e-6 0,-3e-6 0,-6e-6 z m 18.155038,-5.046012 c -0.156091,0.114666 -0.300735,0.232731 -0.40645,0.336104 l 0.907912,1.290729 c 0.09066,-0.04648 0.220884,-0.123648 0.400776,-0.254956 0.283414,-0.206867 0.474487,-0.446381 0.533118,-0.685508 0.04532,-0.202187 0.01143,-0.439151 -0.177443,-0.676435 -0.170539,-0.214234 -0.379394,-0.292256 -0.590701,-0.287399 -0.204493,0.0044 -0.4052,0.08499 -0.667212,0.277465 z m -26.869,2.760985 -0.663861,1.465979 c 0.109283,0.04952 0.218882,0.09836 0.328791,0.1465 l 0.210653,-0.481251 c 0.09695,-0.221488 0.18331,-0.424714 0.26486,-0.639911 0.0031,5.61e-4 0.0063,8.42e-4 0.0095,0.0014 -0.0014,0.224817 0.02297,0.456616 0.05109,0.67209 0.03488,0.240546 0.07269,0.481428 0.113413,0.722588 0.129856,0.05309 0.260105,0.105238 0.390733,0.15642 l 0.587041,-1.49916 c -0.106192,-0.04156 -0.212115,-0.08378 -0.31776,-0.126668 l -0.19059,0.469153 c -0.08508,0.209439 -0.156462,0.391028 -0.21789,0.612643 -0.0014,-5.62e-4 -0.003,-0.0011 -0.0045,-0.002 -0.0041,-0.212723 -0.01789,-0.435705 -0.04869,-0.64756 -0.03569,-0.222797 -0.06879,-0.445325 -0.09931,-0.667532 -0.138335,-0.05982 -0.276153,-0.120792 -0.413435,-0.182911 z m 19.009062,1.197142 0.476669,1.538512 c 0.114667,-0.03554 0.229108,-0.0718 0.343314,-0.108765 l -0.161843,-0.500164 c -0.07449,-0.230184 -0.144776,-0.439688 -0.226614,-0.654941 0.0028,-0.0017 0.0054,-0.0035 0.008,-0.0052 0.148289,0.169208 0.320399,0.32662 0.484472,0.469243 0.18579,0.156904 0.373948,0.312105 0.564449,0.465545 0.132369,-0.04647 0.264393,-0.09391 0.396058,-0.142312 l -0.555329,-1.511451 c -0.107069,0.03932 -0.214391,0.07796 -0.321954,0.115927 l 0.168685,0.477639 c 0.07531,0.213247 0.142624,0.396411 0.243562,0.603123 -0.0014,5.62e-4 -0.003,0.0011 -0.0046,0.0017 -0.144214,-0.156496 -0.302535,-0.314242 -0.466216,-0.452394 -0.174634,-0.143093 -0.34719,-0.28772 -0.517642,-0.433832 -0.143304,0.04701 -0.287003,0.09282 -0.431079,0.137447 z m -26.754794,-6.57768 -1.150178,1.126187 c 0.268317,0.273535 0.542459,0.540878 0.822132,0.801937 l 0.210116,-0.224839 c -0.183035,-0.170929 -0.363657,-0.34458 -0.54178,-0.520925 l 0.255465,-0.257782 c 0.157518,0.156061 0.317042,0.309984 0.478506,0.461755 l 0.210802,-0.224224 c -0.159471,-0.149965 -0.317009,-0.302054 -0.472552,-0.456253 l 0.226898,-0.228956 c 0.16279,0.161489 0.327813,0.320645 0.494998,0.477441 l 0.210439,-0.224549 c -0.253442,-0.23781 -0.501812,-0.481099 -0.744846,-0.729792 z m 0.887136,0.862237 c -0.06248,0.303785 -0.120011,0.609867 -0.172581,0.918107 -0.307071,0.08895 -0.617134,0.17305 -0.930117,0.252167 0.112212,0.103522 0.225297,0.206044 0.339239,0.307557 0.102142,-0.03889 0.203954,-0.07826 0.305436,-0.118098 0.125146,-0.04781 0.21056,-0.07941 0.296407,-0.12393 0.0011,0.0011 0.0025,0.002 0.0036,0.0032 -0.02025,0.09936 -0.0407,0.192121 -0.06735,0.326451 -0.02196,0.107962 -0.04337,0.21618 -0.06422,0.324647 0.117503,0.0998 0.235857,0.198556 0.355037,0.296269 0.03499,-0.327888 0.0755,-0.653679 0.1215,-0.977209 0.295547,-0.08923 0.588249,-0.182973 0.878041,-0.2811 -0.111268,-0.09149 -0.221741,-0.183942 -0.331394,-0.277355 -0.100474,0.04281 -0.201297,0.08515 -0.302468,0.126999 -0.09871,0.04266 -0.165831,0.07227 -0.266236,0.122688 -0.0011,-0.0011 -0.0022,-0.002 -0.0035,-0.0031 0.02685,-0.09661 0.04929,-0.175454 0.07769,-0.290048 0.02584,-0.106431 0.05225,-0.212596 0.0792,-0.318488 -0.106943,-0.09532 -0.213051,-0.191576 -0.318306,-0.288767 z m 2.360889,1.92449 -0.937715,1.304565 c 0.309964,0.222833 0.624571,0.439115 0.943523,0.648759 l 0.168862,-0.25701 c -0.208925,-0.137304 -0.415954,-0.277487 -0.621004,-0.420518 l 0.207308,-0.297233 c 0.181543,0.126623 0.364677,0.250985 0.54933,0.373067 l 0.169587,-0.256527 c -0.182541,-0.120666 -0.363571,-0.243584 -0.543022,-0.368738 l 0.184125,-0.263995 c 0.18802,0.131114 0.377802,0.259751 0.569274,0.385888 l 0.169202,-0.256785 c -0.290539,-0.191368 -0.577118,-0.38855 -0.85947,-0.591473 z m 1.097322,0.746267 -0.869458,1.351489 c 0.313449,0.201741 0.630977,0.397128 0.952302,0.586078 l 0.16072,-0.273482 C 34.654316,55.766563 34.448053,55.641631 34.243487,55.514 l 0.682702,-1.094578 c -0.102986,-0.0642 -0.20551,-0.129111 -0.30756,-0.194736 z m 1.085416,0.661067 -0.803034,1.392726 c 0.322856,0.18627 0.649456,0.366089 0.979521,0.539367 l 0.147436,-0.281029 c -0.213548,-0.11208 -0.425622,-0.226923 -0.636145,-0.344508 l 0.629137,-1.126855 c -0.106063,-0.05918 -0.211705,-0.119076 -0.316915,-0.179701 z m 1.117024,0.608277 -0.735524,1.430376 c 0.339413,0.174654 0.682398,0.342438 1.028659,0.503257 L 37.243838,57.14835 C 37.01692,57.042985 36.79143,56.934605 36.567453,56.823227 l 0.16149,-0.324903 c 0.198409,0.09863 0.398026,0.194882 0.59879,0.288739 l 0.130394,-0.278951 c -0.198544,-0.09279 -0.395954,-0.187956 -0.592161,-0.285464 l 0.143433,-0.28857 c 0.205675,0.102182 0.412688,0.201757 0.620967,0.298704 l 0.129993,-0.279145 c -0.316143,-0.147112 -0.629328,-0.300341 -0.93929,-0.459607 z m 4.222406,1.734184 -0.484452,1.535948 c 0.364303,0.114947 0.730921,0.222645 1.099555,0.322999 l 0.08095,-0.297429 c -0.241598,-0.06577 -0.482323,-0.13472 -0.72209,-0.206833 l 0.104611,-0.347886 c 0.212428,0.06388 0.425619,0.125255 0.639513,0.184096 l 0.08176,-0.29721 c -0.211551,-0.05819 -0.422409,-0.118885 -0.632513,-0.18206 l 0.09291,-0.308984 c 0.220275,0.06623 0.44139,0.129693 0.663268,0.19038 l 0.08133,-0.297328 c -0.336821,-0.09212 -0.67186,-0.190708 -1.004853,-0.295693 z m 2.016016,0.551526 -0.0704,0.302543 c 0.153117,0.03563 0.306538,0.06995 0.460242,0.102941 l -0.272845,1.271155 c 0.126912,0.02724 0.254007,0.05361 0.381279,0.07912 l 0.255563,-1.274714 c 0.156451,0.03137 0.313168,0.06137 0.470131,0.09 l 0.05572,-0.305566 c -0.428562,-0.07818 -0.8553,-0.166728 -1.279689,-0.265483 z m 1.469591,0.299426 -0.277592,1.586501 c 0.12707,0.02222 0.254291,0.04359 0.381653,0.06408 l 0.107136,-0.665271 c 0.226783,0.03652 0.454006,0.07023 0.681609,0.101117 l -0.09062,0.667662 c 0.127836,0.01733 0.255789,0.0338 0.38385,0.04939 l 0.194803,-1.598486 c -0.120786,-0.01474 -0.241483,-0.03029 -0.362073,-0.04667 l -0.08226,0.606075 c -0.224933,-0.03054 -0.449502,-0.06386 -0.673636,-0.09996 l 0.09725,-0.603904 c -0.120171,-0.01938 -0.240217,-0.03955 -0.360127,-0.06054 z m 4.956479,0.397201 0.01278,0.866899 c 0.0081,0.548397 0.285989,0.769413 0.727674,0.751545 0.471139,-0.01907 0.737934,-0.282487 0.702721,-0.803359 l -0.05897,-0.872242 c -0.121337,0.0082 -0.242724,0.01559 -0.364145,0.02213 l 0.04755,0.884869 c 0.01601,0.297816 -0.09486,0.462682 -0.32231,0.472029 -0.222652,0.0092 -0.346935,-0.153136 -0.355291,-0.444097 l -0.02542,-0.88572 c -0.121517,0.0035 -0.243048,0.0062 -0.364584,0.0079 z m 3.415143,-0.273303 0.231285,1.593759 c 0.127668,-0.01851 0.255209,-0.0379 0.38261,-0.05814 l -0.105816,-0.665478 c 0.226883,-0.03608 0.453326,-0.07496 0.679263,-0.116622 l 0.122225,0.662707 c 0.126862,-0.0234 0.25356,-0.04763 0.380091,-0.07274 l -0.313506,-1.57988 c -0.119422,0.0237 -0.238995,0.0466 -0.358714,0.06869 l 0.110951,0.601579 c -0.223309,0.04119 -0.447114,0.07963 -0.671349,0.115287 l -0.09606,-0.604093 c -0.120208,0.01913 -0.240539,0.03744 -0.360983,0.05493 z m 2.653869,-0.522215 0.389407,1.562976 c 0.124379,-0.03099 0.24855,-0.06281 0.372501,-0.09546 l -0.133307,-0.506144 c 0.03562,-0.07115 0.07088,-0.142348 0.105785,-0.213604 0.204567,0.187439 0.412416,0.372763 0.623501,0.55589 0.147368,-0.04223 0.294396,-0.08563 0.441061,-0.130204 -0.293421,-0.234692 -0.580977,-0.47365 -0.862551,-0.716661 0.125558,-0.270856 0.246008,-0.542372 0.361354,-0.814386 -0.14732,0.04454 -0.295022,0.08783 -0.443081,0.129867 -0.0788,0.210341 -0.160419,0.420471 -0.244865,0.630332 -0.0248,0.06097 -0.05165,0.125159 -0.07346,0.190104 -0.0014,2.81e-4 -0.003,8.43e-4 -0.0045,0.0011 l -0.18015,-0.684002 c -0.117021,0.03081 -0.234243,0.06085 -0.351662,0.0901 z M 60.2071,56.062122 c 0.342929,0.433444 0.692667,0.862627 1.049139,1.287381 0.13194,-0.06232 0.263394,-0.125659 0.394345,-0.190006 -0.05815,-0.248923 -0.117736,-0.497319 -0.178749,-0.745177 -0.03728,-0.164507 -0.08097,-0.304678 -0.137167,-0.473153 0.0014,-8.43e-4 0.0028,-0.0014 0.0042,-0.0022 0.09784,0.148058 0.185779,0.264955 0.289523,0.396574 0.156858,0.199668 0.314854,0.398592 0.473981,0.596765 0.125446,-0.06445 0.250407,-0.129844 0.374861,-0.196168 -0.113942,-0.546706 -0.236351,-1.090278 -0.367185,-1.630496 -0.109596,0.06069 -0.21964,0.120621 -0.330116,0.179769 0.06266,0.217233 0.124208,0.434929 0.184661,0.653073 0.05592,0.190795 0.111577,0.379116 0.166574,0.5406 -0.0014,8.42e-4 -0.0028,0.0014 -0.0042,0.0022 -0.101859,-0.137057 -0.201468,-0.272365 -0.32075,-0.424676 -0.146432,-0.184768 -0.291912,-0.370167 -0.436438,-0.556191 -0.122376,0.0628 -0.245255,0.124654 -0.36862,0.185566 0.05616,0.218921 0.111235,0.438255 0.165214,0.657996 0.05062,0.199814 0.101084,0.397943 0.149637,0.558818 -0.0014,5.61e-4 -0.0029,0.0014 -0.0043,0.002 -0.09128,-0.122921 -0.221822,-0.3011 -0.340149,-0.4615 -0.136352,-0.181782 -0.271774,-0.36414 -0.406264,-0.547066 -0.118972,0.05611 -0.238369,0.11135 -0.358178,0.165714 z m 2.065058,-1.046856 0.789231,1.400767 c 0.324698,-0.183063 0.645726,-0.3726 0.962799,-0.568527 L 63.857536,55.57767 c -0.205128,0.126729 -0.411941,0.250757 -0.620358,0.372057 l -0.648902,-1.115339 c -0.10494,0.06102 -0.210316,0.121309 -0.316118,0.180878 z m 1.092086,-0.650228 0.855873,1.360269 c 0.322999,-0.203328 0.641796,-0.41334 0.956094,-0.629944 l -0.174454,-0.253204 c -0.205861,0.141858 -0.413686,0.280858 -0.623386,0.416977 l -0.197303,-0.30404 c 0.185695,-0.120514 0.369887,-0.243315 0.552517,-0.368382 L 64.55985,54.333011 c -0.180527,0.123615 -0.362612,0.244991 -0.546189,0.364109 L 63.83842,54.427078 c 0.192368,-0.1248 0.383068,-0.252105 0.572023,-0.381896 l -0.174117,-0.25344 c -0.286697,0.196904 -0.577481,0.388031 -0.872082,0.573296 z m 3.795765,-2.919723 1.097912,1.174889 c 0.279675,-0.261054 0.553826,-0.528391 0.822148,-0.801921 L 68.85996,51.602755 c -0.175552,0.179083 -0.35365,0.355481 -0.534207,0.529174 l -0.251631,-0.261354 c 0.159695,-0.153718 0.317418,-0.309579 0.473108,-0.46757 l -0.219436,-0.216177 c -0.15372,0.156103 -0.309469,0.310105 -0.467176,0.461992 l -0.223493,-0.232128 c 0.165076,-0.159074 0.327959,-0.320496 0.488567,-0.484247 L 67.9059,50.716613 c -0.243391,0.248334 -0.492112,0.491261 -0.745891,0.728702 z m -20.412995,7.193822 c 0.168132,0.015 0.276367,0.09262 0.264593,0.242744 -0.01081,0.137953 -0.134577,0.215099 -0.325162,0.197975 -0.05633,-0.0051 -0.112633,-0.01031 -0.168927,-0.0157 l 0.04114,-0.42813 c 0.02865,-0.0045 0.08422,-0.0062 0.188361,0.003 z m 1.663032,0.09853 c 0.276091,0.0073 0.437752,0.251137 0.434935,0.54528 -0.0029,0.307646 -0.174508,0.536746 -0.463171,0.529171 -0.286292,-0.0075 -0.452579,-0.250308 -0.439741,-0.548225 0.01298,-0.301075 0.189571,-0.533554 0.467977,-0.526226 z m 11.050542,-2.060713 c 0.255473,-0.105502 0.502259,0.05185 0.618937,0.321792 0.122042,0.282357 0.0581,0.561308 -0.208535,0.67152 -0.264452,0.10931 -0.515013,-0.0449 -0.624382,-0.322339 -0.110519,-0.280361 -0.04363,-0.564586 0.21398,-0.670973 z m 5.62244,-3.150965 c 0.273845,-0.201668 0.557281,-0.208656 0.759446,0.05738 0.222283,0.288256 0.147218,0.593024 -0.170604,0.823247 -0.04479,0.03286 -0.0946,0.06611 -0.128659,0.08504 l -0.607194,-0.837627 c 0.02592,-0.02764 0.07055,-0.07175 0.147,-0.128055 z" /></g></g><metadata
     id="metadata683"><rdf:RDF><cc:Work
         rdf:about=""><cc:license
           rdf:resource="http://creativecommons.org/publicdomain/zero/1.0/" /><dc:title>Bangladesh University of Professionals (BUP) - বাংলাদেশ ইউনিভার্সিটি অব প্রফেশনালস্ (বিইউপি)</dc:title></cc:Work><cc:License
         rdf:about="http://creativecommons.org/publicdomain/zero/1.0/"><cc:permits
           rdf:resource="http://creativecommons.org/ns#Reproduction" /><cc:permits
           rdf:resource="http://creativecommons.org/ns#Distribution" /><cc:permits
           rdf:resource="http://creativecommons.org/ns#DerivativeWorks" /></cc:License></rdf:RDF></metadata></svg>
